<?xml version="1.0" standalone="no"?>
<!DOCTYPE svg PUBLIC "-//W3C//DTD SVG 20010904//EN"
 "http://www.w3.org/TR/2001/REC-SVG-20010904/DTD/svg10.dtd">
<svg version="1.0" xmlns="http://www.w3.org/2000/svg"
 width="450.000000pt" height="450.000000pt" viewBox="0 0 450.000000 450.000000"
 preserveAspectRatio="xMidYMid meet">
<metadata>
Created by potrace 1.14, written by Peter Selinger 2001-2017
</metadata>
<g transform="translate(0.000000,450.000000) scale(0.100000,-0.100000)"
fill="#000000" stroke="none">
<path d="M510 4484 c-178 -38 -358 -179 -439 -344 -76 -156 -72 -31 -69 -1923
3 -1614 4 -1695 21 -1747 38 -111 88 -192 172 -275 86 -86 152 -127 270 -167
l70 -23 1715 0 1715 0 70 23 c118 40 184 81 270 167 84 83 134 164 172 275 17
52 18 133 21 1747 3 1892 7 1767 -69 1923 -82 168 -261 307 -444 345 -102 21
-3375 21 -3475 -1z m1180 -1586 c0 -211 3 -427 7 -480 l6 -98 549 0 548 0 0
480 0 480 285 0 285 0 0 -1225 0 -1225 -278 0 -279 0 -6 122 c-4 66 -7 291 -7
500 l0 378 -555 0 -555 0 0 -500 0 -500 -278 0 -279 0 -6 122 c-4 66 -7 618
-7 1225 l0 1103 285 0 285 0 0 -382z"/>
</g>
</svg>
